<svg width="184" height="184" viewBox="0 0 184 184" fill="none" xmlns="http://www.w3.org/2000/svg">
<path d="M75.2495 123.999C75.2495 114.751 82.7493 107.251 92.0033 107.251C101.257 107.251 108.761 114.751 108.761 123.999C108.761 133.248 101.257 140.747 92.0033 140.747C82.7493 140.747 75.2495 133.248 75.2495 123.999ZM66.1906 123.999C66.1906 138.247 77.7469 149.796 92.0033 149.796C106.26 149.796 117.816 138.247 117.816 123.999C117.816 109.751 106.26 98.2018 92.0033 98.2018C77.7469 98.2018 66.1906 109.751 66.1906 123.999ZM112.806 97.1789C112.805 98.3713 113.158 99.537 113.821 100.529C114.483 101.52 115.425 102.293 116.527 102.75C117.629 103.207 118.842 103.327 120.012 103.095C121.183 102.863 122.258 102.289 123.102 101.446C123.946 100.603 124.521 99.5292 124.754 98.3598C124.987 97.1905 124.868 95.9782 124.412 94.8765C123.956 93.7747 123.183 92.8328 122.191 92.17C121.2 91.5071 120.033 91.1531 118.84 91.1526H118.838C117.239 91.1534 115.705 91.7884 114.574 92.9183C113.443 94.0483 112.807 95.5806 112.806 97.1789ZM71.6945 164.893C66.7934 164.67 64.1295 163.854 62.3592 163.164C60.0123 162.251 58.3377 161.164 56.577 159.406C54.8164 157.649 53.7266 155.977 52.8169 153.632C52.1268 151.863 51.3104 149.2 51.0876 144.302C50.8439 139.007 50.7953 137.416 50.7953 123.999C50.7953 110.583 50.8479 108.997 51.0876 103.697C51.3108 98.7986 52.1332 96.1408 52.8169 94.3671C53.7306 92.0215 54.8188 90.348 56.577 88.5884C58.3353 86.8288 60.0082 85.7396 62.3592 84.8305C64.1287 84.1408 66.7934 83.3249 71.6945 83.1023C76.9933 82.8587 78.585 82.8101 92.0033 82.8101C105.422 82.8101 107.015 82.8627 112.318 83.1023C117.219 83.3253 119.879 84.1472 121.653 84.8305C124 85.7396 125.675 86.8312 127.436 88.5884C129.196 90.3456 130.282 92.0215 131.196 94.3671C131.886 96.1355 132.702 98.7986 132.925 103.697C133.169 108.997 133.217 110.583 133.217 123.999C133.217 137.416 133.169 139.002 132.925 144.302C132.702 149.2 131.881 151.863 131.196 153.632C130.282 155.977 129.194 157.651 127.436 159.406C125.677 161.162 124 162.251 121.653 163.164C119.884 163.854 117.219 164.67 112.318 164.893C107.019 165.136 105.428 165.185 92.0033 165.185C78.579 165.185 76.9917 165.136 71.6945 164.893ZM71.2782 74.064C65.9268 74.3076 62.27 75.1556 59.0764 76.3975C55.7691 77.68 52.9693 79.4006 50.1715 82.1923C47.3737 84.984 45.6565 87.7866 44.3732 91.0919C43.1306 94.2855 42.282 97.9381 42.0383 103.286C41.7906 108.643 41.7339 110.356 41.7339 123.999C41.7339 137.642 41.7906 139.355 42.0383 144.712C42.282 150.06 43.1306 153.713 44.3732 156.906C45.6565 160.21 47.3741 163.015 50.1715 165.806C52.9689 168.596 55.7691 170.314 59.0764 171.601C62.276 172.842 65.9268 173.691 71.2782 173.934C76.641 174.178 78.3517 174.238 92.0033 174.238C105.655 174.238 107.368 174.182 112.728 173.934C118.08 173.691 121.735 172.842 124.93 171.601C128.236 170.314 131.037 168.597 133.835 165.806C136.633 163.014 138.347 160.21 139.633 156.906C140.876 153.713 141.729 150.06 141.968 144.712C142.212 139.351 142.269 137.642 142.269 123.999C142.269 110.356 142.212 108.643 141.968 103.286C141.725 97.9377 140.876 94.2835 139.633 91.0919C138.347 87.7886 136.628 84.9884 133.835 82.1923C131.042 79.3962 128.236 77.68 124.934 76.3975C121.735 75.1556 118.08 74.3036 112.732 74.064C107.372 73.8205 105.659 73.7598 92.0073 73.7598C78.3558 73.7598 76.641 73.8164 71.2782 74.064Z" fill="url(#paint0_radial_132_19015)"/>
<path d="M75.2495 123.999C75.2495 114.751 82.7493 107.251 92.0033 107.251C101.257 107.251 108.761 114.751 108.761 123.999C108.761 133.248 101.257 140.747 92.0033 140.747C82.7493 140.747 75.2495 133.248 75.2495 123.999ZM66.1906 123.999C66.1906 138.247 77.7469 149.796 92.0033 149.796C106.26 149.796 117.816 138.247 117.816 123.999C117.816 109.751 106.26 98.2018 92.0033 98.2018C77.7469 98.2018 66.1906 109.751 66.1906 123.999ZM112.806 97.1789C112.805 98.3713 113.158 99.537 113.821 100.529C114.483 101.52 115.425 102.293 116.527 102.75C117.629 103.207 118.842 103.327 120.012 103.095C121.183 102.863 122.258 102.289 123.102 101.446C123.946 100.603 124.521 99.5292 124.754 98.3598C124.987 97.1905 124.868 95.9782 124.412 94.8765C123.956 93.7747 123.183 92.8328 122.191 92.17C121.2 91.5071 120.033 91.1531 118.84 91.1526H118.838C117.239 91.1534 115.705 91.7884 114.574 92.9183C113.443 94.0483 112.807 95.5806 112.806 97.1789ZM71.6945 164.893C66.7934 164.67 64.1295 163.854 62.3592 163.164C60.0123 162.251 58.3377 161.164 56.577 159.406C54.8164 157.649 53.7266 155.977 52.8169 153.632C52.1268 151.863 51.3104 149.2 51.0876 144.302C50.8439 139.007 50.7953 137.416 50.7953 123.999C50.7953 110.583 50.8479 108.997 51.0876 103.697C51.3108 98.7986 52.1332 96.1408 52.8169 94.3671C53.7306 92.0215 54.8188 90.348 56.577 88.5884C58.3353 86.8288 60.0082 85.7396 62.3592 84.8305C64.1287 84.1408 66.7934 83.3249 71.6945 83.1023C76.9933 82.8587 78.585 82.8101 92.0033 82.8101C105.422 82.8101 107.015 82.8627 112.318 83.1023C117.219 83.3253 119.879 84.1472 121.653 84.8305C124 85.7396 125.675 86.8312 127.436 88.5884C129.196 90.3456 130.282 92.0215 131.196 94.3671C131.886 96.1355 132.702 98.7986 132.925 103.697C133.169 108.997 133.217 110.583 133.217 123.999C133.217 137.416 133.169 139.002 132.925 144.302C132.702 149.2 131.881 151.863 131.196 153.632C130.282 155.977 129.194 157.651 127.436 159.406C125.677 161.162 124 162.251 121.653 163.164C119.884 163.854 117.219 164.67 112.318 164.893C107.019 165.136 105.428 165.185 92.0033 165.185C78.579 165.185 76.9917 165.136 71.6945 164.893ZM71.2782 74.064C65.9268 74.3076 62.27 75.1556 59.0764 76.3975C55.7691 77.68 52.9693 79.4006 50.1715 82.1923C47.3737 84.984 45.6565 87.7866 44.3732 91.0919C43.1306 94.2855 42.282 97.9381 42.0383 103.286C41.7906 108.643 41.7339 110.356 41.7339 123.999C41.7339 137.642 41.7906 139.355 42.0383 144.712C42.282 150.06 43.1306 153.713 44.3732 156.906C45.6565 160.21 47.3741 163.015 50.1715 165.806C52.9689 168.596 55.7691 170.314 59.0764 171.601C62.276 172.842 65.9268 173.691 71.2782 173.934C76.641 174.178 78.3517 174.238 92.0033 174.238C105.655 174.238 107.368 174.182 112.728 173.934C118.08 173.691 121.735 172.842 124.93 171.601C128.236 170.314 131.037 168.597 133.835 165.806C136.633 163.014 138.347 160.21 139.633 156.906C140.876 153.713 141.729 150.06 141.968 144.712C142.212 139.351 142.269 137.642 142.269 123.999C142.269 110.356 142.212 108.643 141.968 103.286C141.725 97.9377 140.876 94.2835 139.633 91.0919C138.347 87.7886 136.628 84.9884 133.835 82.1923C131.042 79.3962 128.236 77.68 124.934 76.3975C121.735 75.1556 118.08 74.3036 112.732 74.064C107.372 73.8205 105.659 73.7598 92.0073 73.7598C78.3558 73.7598 76.641 73.8164 71.2782 74.064Z" fill="url(#paint1_radial_132_19015)"/>
<defs>
<radialGradient id="paint0_radial_132_19015" cx="0" cy="0" r="1" gradientUnits="userSpaceOnUse" gradientTransform="translate(55.0911 174.713) scale(131.245 131.166)">
<stop offset="0.09" stop-color="#FA8F21"/>
<stop offset="0.78" stop-color="#D82D7E"/>
</radialGradient>
<radialGradient id="paint1_radial_132_19015" cx="0" cy="0" r="1" gradientUnits="userSpaceOnUse" gradientTransform="translate(102.706 179.214) scale(103.439 103.377)">
<stop offset="0.64" stop-color="#8C3AAA" stop-opacity="0"/>
<stop offset="1" stop-color="#8C3AAA"/>
</radialGradient>
</defs>
</svg>
