<svg width="184" height="184" viewBox="0 0 184 184" fill="none" xmlns="http://www.w3.org/2000/svg">
<path d="M42.2012 81.4031C42.2012 77.4278 45.5292 74.2012 49.6316 74.2012H135.31C139.414 74.2012 142.74 77.4278 142.74 81.4031V167.539C142.74 171.516 139.414 174.74 135.31 174.74H49.6316C45.5296 174.74 42.2012 171.516 42.2012 167.541V81.4019V81.4031Z" fill="#006699"/>
<path d="M72.753 158.339V113.076H57.7083V158.339H72.7546H72.753ZM65.2338 106.897C70.4791 106.897 73.7447 103.422 73.7447 99.0781C73.6465 94.6355 70.4791 91.2568 65.3336 91.2568C60.1845 91.2568 56.8215 94.6355 56.8215 99.0777C56.8215 103.421 60.0859 106.897 65.1352 106.897H65.2326L65.2338 106.897ZM81.0805 158.339H96.124V133.065C96.124 131.714 96.2222 130.359 96.6196 129.394C97.7067 126.691 100.182 123.892 104.339 123.892C109.782 123.892 111.96 128.042 111.96 134.127V158.339H127.003V132.387C127.003 118.484 119.582 112.015 109.684 112.015C101.569 112.015 98.0052 116.551 96.025 119.64H96.1252V113.078H81.0812C81.2776 117.324 81.0801 158.341 81.0801 158.341L81.0805 158.339Z" fill="white"/>
</svg>
