<svg width="184" height="184" viewBox="0 0 184 184" fill="none" xmlns="http://www.w3.org/2000/svg">
<path d="M138.542 94.5895C135.504 95.897 132.31 96.8075 129.039 97.2984C130.568 97.0363 132.818 94.2837 133.714 93.1696C135.075 91.489 136.112 89.5705 136.772 87.5115C136.772 87.3585 136.925 87.1401 136.772 87.0308C136.695 86.9888 136.609 86.9667 136.521 86.9667C136.433 86.9667 136.347 86.9888 136.27 87.0308C132.718 88.9542 128.938 90.4222 125.019 91.4C124.883 91.4418 124.737 91.4455 124.599 91.4109C124.46 91.3762 124.334 91.3045 124.233 91.2034C123.928 90.8402 123.599 90.4972 123.25 90.1767C121.651 88.7445 119.838 87.5724 117.876 86.7032C115.227 85.6165 112.366 85.1459 109.509 85.3269C106.736 85.502 104.03 86.2456 101.557 87.5115C99.1218 88.8461 96.9817 90.6592 95.2652 92.8419C93.4596 95.0884 92.156 97.6955 91.4422 100.488C90.8535 103.144 90.7867 105.889 91.2456 108.571C91.2456 109.03 91.2456 109.095 90.8523 109.03C75.2762 106.736 62.4963 101.209 52.0539 89.3465C51.5952 88.8222 51.3549 88.8222 50.9835 89.3465C46.4395 96.2498 48.646 107.173 54.3259 112.569C55.0905 113.29 55.877 113.989 56.7071 114.644C54.1029 114.459 51.5623 113.754 49.2358 112.569C48.7989 112.285 48.5586 112.438 48.5367 112.962C48.4748 113.689 48.4748 114.42 48.5367 115.147C48.9926 118.63 50.3654 121.93 52.5149 124.709C54.6644 127.488 57.5133 129.646 60.7705 130.963C61.5645 131.303 62.3918 131.559 63.2391 131.728C60.8282 132.202 58.3555 132.276 55.9207 131.946C55.3964 131.837 55.1997 132.121 55.3964 132.623C58.6077 141.362 65.5766 144.027 70.6885 145.512C71.3876 145.622 72.0867 145.622 72.8731 145.796C72.8731 145.796 72.8731 145.796 72.742 145.928C71.2347 148.68 65.1397 150.537 62.3434 151.498C57.2394 153.332 51.7977 154.032 46.3958 153.552C45.5438 153.421 45.3472 153.443 45.1288 153.552C44.9103 153.661 45.1288 153.901 45.3691 154.12C46.4614 154.841 47.5537 155.474 48.6897 156.086C52.0715 157.93 55.6468 159.396 59.3505 160.455C78.5312 165.742 100.115 161.853 114.511 147.544C125.828 136.315 129.804 120.827 129.804 105.316C129.804 104.726 130.525 104.377 130.94 104.071C133.803 101.84 136.327 99.2056 138.433 96.2498C138.798 95.8092 138.985 95.2483 138.957 94.6769C138.957 94.3492 138.957 94.4148 138.542 94.5895Z" fill="#33CCFF"/>
</svg>
