<svg width="184" height="184" viewBox="0 0 184 184" fill="none" xmlns="http://www.w3.org/2000/svg">
<path d="M143.176 98.6918C141.975 94.1755 138.421 90.6126 133.9 89.3915C125.724 87.2002 92.9219 87.2002 92.9219 87.2002C92.9219 87.2002 60.1365 87.2002 51.9443 89.3915C47.4395 90.5958 43.8856 94.1587 42.6676 98.6918C40.4819 106.888 40.4819 124 40.4819 124C40.4819 124 40.4819 141.112 42.6676 149.309C43.8689 153.825 47.4228 157.388 51.9443 158.609C60.1365 160.8 92.9219 160.8 92.9219 160.8C92.9219 160.8 125.724 160.8 133.9 158.609C138.404 157.405 141.958 153.842 143.176 149.309C145.362 141.112 145.362 124 145.362 124C145.362 124 145.362 106.888 143.176 98.6918Z" fill="#FF3000"/>
<path d="M82.4439 139.774L109.69 124L82.4439 108.226V139.774Z" fill="white"/>
</svg>
